<mxfile host="app.diagrams.net" modified="2022-03-17T09:00:58.373Z" agent="5.0 (Macintosh; Intel Mac OS X 10_15_7) AppleWebKit/537.36 (KHTML, like Gecko) Chrome/99.0.4844.51 Safari/537.36" etag="h59Jq_QmHCmxqX3W7CTm" version="17.1.0" type="github">
  <diagram id="cI57YzMiz7fRhd4ICnGv" name="PostHandler">
    <mxGraphModel dx="2194" dy="1183" grid="1" gridSize="10" guides="1" tooltips="1" connect="1" arrows="1" fold="1" page="1" pageScale="1" pageWidth="827" pageHeight="1169" math="0" shadow="0">
      <root>
        <mxCell id="0" />
        <mxCell id="1" parent="0" />
        <mxCell id="VfuoobMQqFoEDcukleZy-1" value="Client" style="shape=umlLifeline;perimeter=lifelinePerimeter;whiteSpace=wrap;html=1;container=1;collapsible=0;recursiveResize=0;outlineConnect=0;" vertex="1" parent="1">
          <mxGeometry x="40" y="40" width="100" height="1480" as="geometry" />
        </mxCell>
        <mxCell id="VfuoobMQqFoEDcukleZy-2" value=":VoluemeServer" style="shape=umlLifeline;perimeter=lifelinePerimeter;whiteSpace=wrap;html=1;container=1;collapsible=0;recursiveResize=0;outlineConnect=0;" vertex="1" parent="1">
          <mxGeometry x="180" y="40" width="100" height="1480" as="geometry" />
        </mxCell>
        <mxCell id="VfuoobMQqFoEDcukleZy-4" value="" style="html=1;points=[];perimeter=orthogonalPerimeter;" vertex="1" parent="VfuoobMQqFoEDcukleZy-2">
          <mxGeometry x="50" y="140" width="10" height="40" as="geometry" />
        </mxCell>
        <mxCell id="VfuoobMQqFoEDcukleZy-5" value="PostHandler()" style="edgeStyle=orthogonalEdgeStyle;html=1;align=left;spacingLeft=2;endArrow=block;rounded=0;entryX=1;entryY=0;" edge="1" target="VfuoobMQqFoEDcukleZy-4" parent="VfuoobMQqFoEDcukleZy-2">
          <mxGeometry relative="1" as="geometry">
            <mxPoint x="55" y="120" as="sourcePoint" />
            <Array as="points">
              <mxPoint x="85" y="120" />
            </Array>
          </mxGeometry>
        </mxCell>
        <mxCell id="VfuoobMQqFoEDcukleZy-11" value="" style="html=1;points=[];perimeter=orthogonalPerimeter;" vertex="1" parent="VfuoobMQqFoEDcukleZy-2">
          <mxGeometry x="50" y="360" width="10" height="570" as="geometry" />
        </mxCell>
        <mxCell id="VfuoobMQqFoEDcukleZy-12" value="ReplicateWrite()" style="edgeStyle=orthogonalEdgeStyle;html=1;align=left;spacingLeft=2;endArrow=block;rounded=0;entryX=1;entryY=0;" edge="1" target="VfuoobMQqFoEDcukleZy-11" parent="VfuoobMQqFoEDcukleZy-2">
          <mxGeometry relative="1" as="geometry">
            <mxPoint x="55" y="340" as="sourcePoint" />
            <Array as="points">
              <mxPoint x="85" y="340" />
            </Array>
          </mxGeometry>
        </mxCell>
        <mxCell id="VfuoobMQqFoEDcukleZy-17" value="" style="html=1;points=[];perimeter=orthogonalPerimeter;" vertex="1" parent="VfuoobMQqFoEDcukleZy-2">
          <mxGeometry x="60" y="410" width="10" height="120" as="geometry" />
        </mxCell>
        <mxCell id="VfuoobMQqFoEDcukleZy-18" value="getWriteableRemote&lt;br&gt;Replication()" style="edgeStyle=orthogonalEdgeStyle;html=1;align=left;spacingLeft=2;endArrow=block;rounded=0;entryX=1;entryY=0;" edge="1" target="VfuoobMQqFoEDcukleZy-17" parent="VfuoobMQqFoEDcukleZy-2">
          <mxGeometry relative="1" as="geometry">
            <mxPoint x="65" y="390" as="sourcePoint" />
            <Array as="points">
              <mxPoint x="95" y="390" />
            </Array>
          </mxGeometry>
        </mxCell>
        <mxCell id="VfuoobMQqFoEDcukleZy-3" value="HTTP Put/Post" style="html=1;verticalAlign=bottom;endArrow=block;rounded=0;" edge="1" parent="1" target="VfuoobMQqFoEDcukleZy-2">
          <mxGeometry width="80" relative="1" as="geometry">
            <mxPoint x="90" y="120" as="sourcePoint" />
            <mxPoint x="170" y="120" as="targetPoint" />
          </mxGeometry>
        </mxCell>
        <mxCell id="VfuoobMQqFoEDcukleZy-6" value=":Needle" style="shape=umlLifeline;perimeter=lifelinePerimeter;whiteSpace=wrap;html=1;container=1;collapsible=0;recursiveResize=0;outlineConnect=0;" vertex="1" parent="1">
          <mxGeometry x="360" y="40" width="100" height="1480" as="geometry" />
        </mxCell>
        <mxCell id="VfuoobMQqFoEDcukleZy-7" value="" style="html=1;points=[];perimeter=orthogonalPerimeter;" vertex="1" parent="VfuoobMQqFoEDcukleZy-6">
          <mxGeometry x="44" y="210" width="10" height="80" as="geometry" />
        </mxCell>
        <mxCell id="VfuoobMQqFoEDcukleZy-29" value="" style="html=1;points=[];perimeter=orthogonalPerimeter;" vertex="1" parent="VfuoobMQqFoEDcukleZy-6">
          <mxGeometry x="44" y="650" width="10" height="40" as="geometry" />
        </mxCell>
        <mxCell id="VfuoobMQqFoEDcukleZy-8" value="CreateNeedleFromRequest()" style="html=1;verticalAlign=bottom;endArrow=block;entryX=0;entryY=0;rounded=0;" edge="1" target="VfuoobMQqFoEDcukleZy-7" parent="1" source="VfuoobMQqFoEDcukleZy-2">
          <mxGeometry relative="1" as="geometry">
            <mxPoint x="334" y="250" as="sourcePoint" />
          </mxGeometry>
        </mxCell>
        <mxCell id="VfuoobMQqFoEDcukleZy-9" value="return needle" style="html=1;verticalAlign=bottom;endArrow=open;dashed=1;endSize=8;exitX=0;exitY=0.95;rounded=0;" edge="1" source="VfuoobMQqFoEDcukleZy-7" parent="1" target="VfuoobMQqFoEDcukleZy-2">
          <mxGeometry relative="1" as="geometry">
            <mxPoint x="334" y="326" as="targetPoint" />
          </mxGeometry>
        </mxCell>
        <mxCell id="VfuoobMQqFoEDcukleZy-13" value=":MasterServer" style="shape=umlLifeline;perimeter=lifelinePerimeter;whiteSpace=wrap;html=1;container=1;collapsible=0;recursiveResize=0;outlineConnect=0;" vertex="1" parent="1">
          <mxGeometry x="490" y="40" width="100" height="1480" as="geometry" />
        </mxCell>
        <mxCell id="VfuoobMQqFoEDcukleZy-14" value="" style="html=1;points=[];perimeter=orthogonalPerimeter;" vertex="1" parent="VfuoobMQqFoEDcukleZy-13">
          <mxGeometry x="45" y="440" width="10" height="80" as="geometry" />
        </mxCell>
        <mxCell id="VfuoobMQqFoEDcukleZy-37" value="UploadData() //HTTP POST" style="html=1;verticalAlign=bottom;endArrow=block;rounded=0;" edge="1" parent="VfuoobMQqFoEDcukleZy-13">
          <mxGeometry width="80" relative="1" as="geometry">
            <mxPoint x="-259.99647058823535" y="910" as="sourcePoint" />
            <mxPoint x="680.1799999999995" y="910" as="targetPoint" />
          </mxGeometry>
        </mxCell>
        <mxCell id="VfuoobMQqFoEDcukleZy-15" value="LookupVolumeId()" style="html=1;verticalAlign=bottom;endArrow=block;entryX=0;entryY=0;rounded=0;" edge="1" target="VfuoobMQqFoEDcukleZy-14" parent="1" source="VfuoobMQqFoEDcukleZy-2">
          <mxGeometry relative="1" as="geometry">
            <mxPoint x="380" y="520" as="sourcePoint" />
          </mxGeometry>
        </mxCell>
        <mxCell id="VfuoobMQqFoEDcukleZy-16" value="return volumeIdLocations" style="html=1;verticalAlign=bottom;endArrow=open;dashed=1;endSize=8;exitX=0;exitY=0.95;rounded=0;" edge="1" source="VfuoobMQqFoEDcukleZy-14" parent="1" target="VfuoobMQqFoEDcukleZy-2">
          <mxGeometry relative="1" as="geometry">
            <mxPoint x="380" y="596" as="targetPoint" />
          </mxGeometry>
        </mxCell>
        <mxCell id="VfuoobMQqFoEDcukleZy-19" value=":Store" style="shape=umlLifeline;perimeter=lifelinePerimeter;whiteSpace=wrap;html=1;container=1;collapsible=0;recursiveResize=0;outlineConnect=0;" vertex="1" parent="1">
          <mxGeometry x="630" y="40" width="100" height="1480" as="geometry" />
        </mxCell>
        <mxCell id="VfuoobMQqFoEDcukleZy-20" value="" style="html=1;points=[];perimeter=orthogonalPerimeter;" vertex="1" parent="VfuoobMQqFoEDcukleZy-19">
          <mxGeometry x="45.49" y="570" width="10" height="290" as="geometry" />
        </mxCell>
        <mxCell id="VfuoobMQqFoEDcukleZy-21" value="WriteVolumeNeedle()" style="html=1;verticalAlign=bottom;endArrow=block;entryX=0;entryY=0;rounded=0;" edge="1" target="VfuoobMQqFoEDcukleZy-20" parent="1">
          <mxGeometry relative="1" as="geometry">
            <mxPoint x="230.00219512195133" y="610" as="sourcePoint" />
          </mxGeometry>
        </mxCell>
        <mxCell id="VfuoobMQqFoEDcukleZy-22" value="return" style="html=1;verticalAlign=bottom;endArrow=open;dashed=1;endSize=8;exitX=0;exitY=0.95;rounded=0;" edge="1" source="VfuoobMQqFoEDcukleZy-20" parent="1" target="VfuoobMQqFoEDcukleZy-2">
          <mxGeometry relative="1" as="geometry">
            <mxPoint x="230.00219512195133" y="686" as="targetPoint" />
          </mxGeometry>
        </mxCell>
        <mxCell id="VfuoobMQqFoEDcukleZy-23" value=":Volume" style="shape=umlLifeline;perimeter=lifelinePerimeter;whiteSpace=wrap;html=1;container=1;collapsible=0;recursiveResize=0;outlineConnect=0;" vertex="1" parent="1">
          <mxGeometry x="780" y="40" width="100" height="1480" as="geometry" />
        </mxCell>
        <mxCell id="VfuoobMQqFoEDcukleZy-24" value="" style="html=1;points=[];perimeter=orthogonalPerimeter;" vertex="1" parent="VfuoobMQqFoEDcukleZy-23">
          <mxGeometry x="45" y="590" width="10" height="250" as="geometry" />
        </mxCell>
        <mxCell id="VfuoobMQqFoEDcukleZy-27" value="" style="html=1;points=[];perimeter=orthogonalPerimeter;" vertex="1" parent="VfuoobMQqFoEDcukleZy-23">
          <mxGeometry x="55" y="630" width="10" height="180" as="geometry" />
        </mxCell>
        <mxCell id="VfuoobMQqFoEDcukleZy-28" value="doWriteRequest()" style="edgeStyle=orthogonalEdgeStyle;html=1;align=left;spacingLeft=2;endArrow=block;rounded=0;entryX=1;entryY=0;" edge="1" target="VfuoobMQqFoEDcukleZy-27" parent="VfuoobMQqFoEDcukleZy-23">
          <mxGeometry relative="1" as="geometry">
            <mxPoint x="60" y="610" as="sourcePoint" />
            <Array as="points">
              <mxPoint x="90" y="610" />
            </Array>
          </mxGeometry>
        </mxCell>
        <mxCell id="VfuoobMQqFoEDcukleZy-25" value="writeNeedle2()" style="html=1;verticalAlign=bottom;endArrow=block;entryX=0;entryY=0;rounded=0;" edge="1" target="VfuoobMQqFoEDcukleZy-24" parent="1" source="VfuoobMQqFoEDcukleZy-19">
          <mxGeometry relative="1" as="geometry">
            <mxPoint x="755" y="620" as="sourcePoint" />
          </mxGeometry>
        </mxCell>
        <mxCell id="VfuoobMQqFoEDcukleZy-26" value="return" style="html=1;verticalAlign=bottom;endArrow=open;dashed=1;endSize=8;exitX=0;exitY=0.95;rounded=0;" edge="1" source="VfuoobMQqFoEDcukleZy-24" parent="1" target="VfuoobMQqFoEDcukleZy-19">
          <mxGeometry relative="1" as="geometry">
            <mxPoint x="755" y="696" as="targetPoint" />
          </mxGeometry>
        </mxCell>
        <mxCell id="VfuoobMQqFoEDcukleZy-30" value="Append()" style="html=1;verticalAlign=bottom;endArrow=block;entryX=1;entryY=0;rounded=0;" edge="1" target="VfuoobMQqFoEDcukleZy-29" parent="1" source="VfuoobMQqFoEDcukleZy-23">
          <mxGeometry relative="1" as="geometry">
            <mxPoint x="474" y="690" as="sourcePoint" />
          </mxGeometry>
        </mxCell>
        <mxCell id="VfuoobMQqFoEDcukleZy-31" value="return" style="html=1;verticalAlign=bottom;endArrow=open;dashed=1;endSize=8;exitX=1;exitY=0.95;rounded=0;" edge="1" source="VfuoobMQqFoEDcukleZy-29" parent="1" target="VfuoobMQqFoEDcukleZy-23">
          <mxGeometry relative="1" as="geometry">
            <mxPoint x="474" y="747" as="targetPoint" />
          </mxGeometry>
        </mxCell>
        <mxCell id="VfuoobMQqFoEDcukleZy-32" value=":NeedleMap" style="shape=umlLifeline;perimeter=lifelinePerimeter;whiteSpace=wrap;html=1;container=1;collapsible=0;recursiveResize=0;outlineConnect=0;" vertex="1" parent="1">
          <mxGeometry x="950" y="40" width="100" height="1480" as="geometry" />
        </mxCell>
        <mxCell id="VfuoobMQqFoEDcukleZy-33" value="" style="html=1;points=[];perimeter=orthogonalPerimeter;" vertex="1" parent="VfuoobMQqFoEDcukleZy-32">
          <mxGeometry x="40" y="710" width="10" height="60" as="geometry" />
        </mxCell>
        <mxCell id="VfuoobMQqFoEDcukleZy-34" value="Put()" style="html=1;verticalAlign=bottom;endArrow=block;entryX=0;entryY=0;rounded=0;" edge="1" target="VfuoobMQqFoEDcukleZy-33" parent="1" source="VfuoobMQqFoEDcukleZy-23">
          <mxGeometry relative="1" as="geometry">
            <mxPoint x="940" y="750" as="sourcePoint" />
          </mxGeometry>
        </mxCell>
        <mxCell id="VfuoobMQqFoEDcukleZy-35" value="return" style="html=1;verticalAlign=bottom;endArrow=open;dashed=1;endSize=8;exitX=0;exitY=0.95;rounded=0;" edge="1" source="VfuoobMQqFoEDcukleZy-33" parent="1" target="VfuoobMQqFoEDcukleZy-23">
          <mxGeometry relative="1" as="geometry">
            <mxPoint x="940" y="826" as="targetPoint" />
          </mxGeometry>
        </mxCell>
        <mxCell id="VfuoobMQqFoEDcukleZy-36" value=":Replicate&lt;br&gt;VolumeServer" style="shape=umlLifeline;perimeter=lifelinePerimeter;whiteSpace=wrap;html=1;container=1;collapsible=0;recursiveResize=0;outlineConnect=0;" vertex="1" parent="1">
          <mxGeometry x="1120" y="40" width="100" height="1480" as="geometry" />
        </mxCell>
        <mxCell id="VfuoobMQqFoEDcukleZy-38" value="return" style="html=1;verticalAlign=bottom;endArrow=open;dashed=1;endSize=8;rounded=0;" edge="1" parent="1" target="VfuoobMQqFoEDcukleZy-1">
          <mxGeometry relative="1" as="geometry">
            <mxPoint x="230" y="1000" as="sourcePoint" />
            <mxPoint x="150" y="1000" as="targetPoint" />
          </mxGeometry>
        </mxCell>
      </root>
    </mxGraphModel>
  </diagram>
</mxfile>
